<svg width="368" height="106" viewBox="0 0 368 106" fill="none" xmlns="http://www.w3.org/2000/svg">
<path d="M7.31934 24.6051L46.2675 60.4512L46.9568 67.9651L8.07763 31.9811L7.31934 24.6051ZM7.52615 62.726V67H2.35604V66.3107C2.35604 66.3107 2.53986 66.3107 2.90752 66.3107C3.32113 66.3107 3.52793 66.3107 3.52793 66.3107C4.58493 66.3107 5.48108 65.966 6.21639 65.2766C6.95169 64.5873 7.31934 63.7371 7.31934 62.726H7.52615ZM12.5584 62.726C12.5584 63.7371 12.926 64.5873 13.6613 65.2766C14.4426 65.966 15.3388 66.3107 16.3498 66.3107C16.3498 66.3107 16.5336 66.3107 16.9013 66.3107C17.3149 66.3107 17.5217 66.3107 17.5217 66.3107V67H12.3516V62.726H12.5584ZM7.31934 24.6051L12.4895 30.6714L12.5584 67H7.31934V33.0151C7.31934 30.6714 7.20445 28.6952 6.97467 27.0868C6.79084 25.4323 6.69893 24.6051 6.69893 24.6051H7.31934ZM46.9568 25.6391V59.3482C46.9568 60.8648 47.0028 62.2895 47.0947 63.6222C47.1866 64.909 47.2785 65.966 47.3705 66.7932C47.5083 67.5745 47.5773 67.9651 47.5773 67.9651H46.9568L41.7867 61.8299V25.6391H46.9568ZM46.75 29.9131V25.6391H51.9201V26.3285C51.9201 26.3285 51.7133 26.3285 51.2997 26.3285C50.9321 26.3285 50.7483 26.3285 50.7483 26.3285C49.7372 26.3285 48.8411 26.6731 48.0598 27.3625C47.3245 28.0518 46.9568 28.902 46.9568 29.9131H46.75ZM41.7867 29.9131C41.7408 28.902 41.3501 28.0518 40.6148 27.3625C39.8795 26.6731 38.9834 26.3285 37.9264 26.3285C37.9264 26.3285 37.7196 26.3285 37.306 26.3285C36.9383 26.3285 36.7545 26.3285 36.7545 26.3285V25.6391H41.9246V29.9131H41.7867ZM68.416 25.6391V67H62.143V25.6391H68.416ZM86.1323 64.6562L86.6148 67H68.2782V64.6562H86.1323ZM83.237 45.2166V47.5604H68.2782V45.2166H83.237ZM86.3391 25.6391V27.9829H68.2782V25.6391H86.3391ZM90.1994 56.1772L86.8216 67H75.861L78.1358 64.6562C80.2958 64.6562 82.0881 64.3115 83.5127 63.6222C84.9834 62.8869 86.2012 61.8758 87.1663 60.5891C88.1314 59.3023 88.9126 57.8317 89.5101 56.1772H90.1994ZM83.237 47.4225V52.0412H82.4787V51.2829C82.4787 50.2259 82.157 49.3527 81.5136 48.6633C80.9162 47.928 80.02 47.5604 78.8252 47.5604V47.4225H83.237ZM83.237 40.7358V45.3545H78.8252V45.2166C80.02 45.2166 80.9162 44.849 81.5136 44.1137C82.157 43.3783 82.4787 42.5052 82.4787 41.4941V40.7358H83.237ZM86.3391 27.7761V33.4288H85.6497V32.5326C85.6497 31.1999 85.2591 30.1199 84.4778 29.2927C83.6966 28.4195 82.6166 27.9829 81.2379 27.9829V27.7761H86.3391ZM86.3391 24.5362V26.3285L78.6873 25.6391C80.112 25.6391 81.6055 25.5242 83.1681 25.2945C84.7306 25.0187 85.7876 24.766 86.3391 24.5362ZM62.2808 62.5882L63.0391 67H57.3175V66.3107C57.3175 66.3107 57.4554 66.3107 57.7311 66.3107C58.0528 66.3107 58.2367 66.3107 58.2826 66.3107C59.3856 66.3107 60.2817 65.943 60.9711 65.2077C61.7064 64.4724 62.097 63.5992 62.143 62.5882H62.2808ZM62.2808 29.982H62.143C62.097 28.925 61.7064 28.0518 60.9711 27.3625C60.2817 26.6731 59.3856 26.3285 58.2826 26.3285C58.2367 26.3285 58.0528 26.3285 57.7311 26.3285C57.4554 26.3285 57.3175 26.3285 57.3175 26.3285V25.6391H63.0391L62.2808 29.982ZM104.108 25.7081L132.164 66.9311H124.581L96.6626 25.7081H104.108ZM103.142 62.6571C102.545 63.5303 102.545 64.3575 103.142 65.1388C103.786 65.92 104.521 66.3107 105.348 66.3107C105.348 66.3107 105.486 66.3107 105.762 66.3107C106.038 66.3107 106.176 66.3107 106.176 66.3107V67H91.0789V66.3107H91.975C93.3078 66.3107 94.5256 65.966 95.6286 65.2766C96.7775 64.5873 97.7196 63.783 98.4549 62.8639L103.142 62.6571ZM111.828 45.5613L113.758 48.2497L99.9715 66.9311L95.3528 66.8621L111.828 45.5613ZM121.686 62.726L129.338 62.9328C130.027 63.806 130.946 64.5873 132.095 65.2766C133.244 65.966 134.485 66.3107 135.818 66.3107H136.714V67H118.722V66.3107C118.722 66.3107 118.837 66.3107 119.066 66.3107C119.342 66.3107 119.48 66.3107 119.48 66.3107C120.399 66.3107 121.134 65.92 121.686 65.1388C122.237 64.3575 122.237 63.5533 121.686 62.726ZM109.967 25.6391V26.3285C109.967 26.3285 109.829 26.3285 109.553 26.3285C109.278 26.3285 109.14 26.3285 109.14 26.3285C108.313 26.3285 107.6 26.7191 107.003 27.5004C106.451 28.2816 106.428 29.0859 106.934 29.9131L99.4889 29.7063C98.7996 28.7871 97.8804 28.0059 96.7315 27.3625C95.5826 26.6731 94.3188 26.3285 92.9401 26.3285H92.1129V25.6391H109.967ZM130.923 25.7081L116.309 46.3885L114.379 43.2864L126.029 25.7081H130.923ZM135.473 25.6391V26.3285H134.508C133.175 26.3285 131.934 26.6731 130.785 27.3625C129.636 28.0059 128.74 28.8101 128.097 29.7752L123.202 29.982C123.754 29.1088 123.754 28.2816 123.202 27.5004C122.651 26.7191 121.916 26.3285 120.997 26.3285C120.997 26.3285 120.859 26.3285 120.583 26.3285C120.353 26.3285 120.238 26.3285 120.238 26.3285V25.6391H135.473ZM159.238 25.8459V67H152.896V25.8459H159.238ZM175.368 25.5702V27.845H136.765V25.5702H175.368ZM175.368 27.7072V33.2909H174.61V32.3947C174.61 31.062 174.219 29.982 173.438 29.1548C172.657 28.3276 171.577 27.891 170.198 27.845V27.7072H175.368ZM175.368 24.4672V26.2595L167.786 25.5702C168.659 25.5702 169.601 25.5242 170.612 25.4323C171.669 25.2945 172.611 25.1336 173.438 24.9498C174.311 24.766 174.955 24.6051 175.368 24.4672ZM153.033 62.5882V67H148.139V66.3107C148.185 66.3107 148.323 66.3107 148.553 66.3107C148.828 66.3107 148.966 66.3107 148.966 66.3107C150.023 66.3107 150.919 65.943 151.655 65.2077C152.436 64.4724 152.85 63.5992 152.896 62.5882H153.033ZM159.031 62.5882H159.238C159.238 63.5992 159.628 64.4724 160.409 65.2077C161.191 65.943 162.11 66.3107 163.167 66.3107C163.167 66.3107 163.282 66.3107 163.512 66.3107C163.787 66.3107 163.925 66.3107 163.925 66.3107V67H159.031V62.5882ZM141.935 27.7072V27.845C140.556 27.891 139.476 28.3276 138.695 29.1548C137.914 29.982 137.523 31.062 137.523 32.3947V33.2909H136.765V27.7072H141.935ZM136.765 24.4672C137.178 24.6051 137.799 24.766 138.626 24.9498C139.499 25.1336 140.441 25.2945 141.452 25.4323C142.509 25.5242 143.475 25.5702 144.348 25.5702L136.765 26.2595V24.4672ZM190.802 25.6391V67H184.598V25.6391H190.802ZM205.761 45.2166V47.5604H190.664V45.2166H205.761ZM209.001 25.6391V27.9829H190.664V25.6391H209.001ZM205.761 47.4225V52.0412H205.003V51.2829C205.003 50.2259 204.704 49.3527 204.107 48.6633C203.509 47.928 202.59 47.5604 201.349 47.5604V47.4225H205.761ZM205.761 40.7358V45.3545H201.349V45.2166C202.59 45.2166 203.509 44.849 204.107 44.1137C204.704 43.3783 205.003 42.5052 205.003 41.4941V40.7358H205.761ZM209.001 27.7761V33.4288H208.243V32.5326C208.243 31.1999 207.852 30.1199 207.071 29.2927C206.29 28.4195 205.21 27.9829 203.831 27.9829V27.7761H209.001ZM209.001 24.5362V26.3285L201.28 25.6391C202.199 25.6391 203.164 25.5932 204.176 25.5013C205.233 25.3634 206.198 25.2025 207.071 25.0187C207.944 24.8349 208.587 24.674 209.001 24.5362ZM184.736 62.5882L185.425 67H179.704V66.3107C179.704 66.3107 179.842 66.3107 180.117 66.3107C180.439 66.3107 180.623 66.3107 180.669 66.3107C181.772 66.3107 182.691 65.943 183.426 65.2077C184.161 64.4724 184.552 63.5992 184.598 62.5882H184.736ZM184.736 29.982H184.598C184.552 28.925 184.161 28.0518 183.426 27.3625C182.691 26.6731 181.772 26.3285 180.669 26.3285C180.623 26.3285 180.439 26.3285 180.117 26.3285C179.842 26.3285 179.704 26.3285 179.704 26.3285V25.6391H185.425L184.736 29.982ZM190.664 62.5882H190.802C190.848 63.5992 191.239 64.4724 191.974 65.2077C192.709 65.943 193.651 66.3107 194.8 66.3107C194.8 66.3107 194.938 66.3107 195.214 66.3107C195.536 66.3107 195.697 66.3107 195.697 66.3107V67H189.975L190.664 62.5882ZM225.707 25.6391V51.6965C225.707 56.0623 226.787 59.5091 228.947 62.0367C231.153 64.5183 234.14 65.7592 237.908 65.7592C242.044 65.7592 245.284 64.5873 247.628 62.2435C249.972 59.8538 251.144 56.5908 251.144 52.4548V25.6391H254.797V52.3169C254.797 57.1423 253.258 60.9567 250.179 63.7601C247.146 66.5634 242.941 67.9651 237.564 67.9651C231.819 67.9651 227.361 66.5864 224.19 63.829C221.065 61.0257 219.503 57.2113 219.503 52.3858V25.6391H225.707ZM219.641 25.6391V29.2927H219.503C219.457 28.4195 219.112 27.7072 218.469 27.1557C217.871 26.6042 217.113 26.3285 216.194 26.3285C216.194 26.3285 216.033 26.3285 215.711 26.3285C215.39 26.3285 215.229 26.3285 215.229 26.3285V25.6391H219.641ZM229.981 25.6391V26.3285C229.981 26.3285 229.797 26.3285 229.429 26.3285C229.108 26.3285 228.947 26.3285 228.947 26.3285C228.074 26.3285 227.315 26.6042 226.672 27.1557C226.029 27.7072 225.707 28.4195 225.707 29.2927H225.569V25.6391H229.981ZM251.282 25.6391V29.2927H251.144C251.144 28.4195 250.822 27.7072 250.179 27.1557C249.535 26.6042 248.777 26.3285 247.904 26.3285C247.904 26.3285 247.72 26.3285 247.352 26.3285C247.031 26.3285 246.87 26.3285 246.87 26.3285V25.6391H251.282ZM259.002 25.6391V26.3285C259.002 26.3285 258.842 26.3285 258.52 26.3285C258.198 26.3285 258.037 26.3285 258.037 26.3285C257.164 26.3285 256.406 26.6042 255.762 27.1557C255.119 27.7072 254.797 28.4195 254.797 29.2927H254.659V25.6391H259.002ZM268.046 24.6051L306.994 60.4512L307.684 67.9651L268.805 31.9811L268.046 24.6051ZM268.253 62.726V67H263.083V66.3107C263.083 66.3107 263.267 66.3107 263.634 66.3107C264.048 66.3107 264.255 66.3107 264.255 66.3107C265.312 66.3107 266.208 65.966 266.943 65.2766C267.679 64.5873 268.046 63.7371 268.046 62.726H268.253ZM273.285 62.726C273.285 63.7371 273.653 64.5873 274.388 65.2766C275.17 65.966 276.066 66.3107 277.077 66.3107C277.077 66.3107 277.261 66.3107 277.628 66.3107C278.042 66.3107 278.249 66.3107 278.249 66.3107V67H273.079V62.726H273.285ZM268.046 24.6051L273.216 30.6714L273.285 67H268.046V33.0151C268.046 30.6714 267.931 28.6952 267.702 27.0868C267.518 25.4323 267.426 24.6051 267.426 24.6051H268.046ZM307.684 25.6391V59.3482C307.684 60.8648 307.73 62.2895 307.822 63.6222C307.914 64.909 308.006 65.966 308.097 66.7932C308.235 67.5745 308.304 67.9651 308.304 67.9651H307.684L302.514 61.8299V25.6391H307.684ZM307.477 29.9131V25.6391H312.647V26.3285C312.647 26.3285 312.44 26.3285 312.027 26.3285C311.659 26.3285 311.475 26.3285 311.475 26.3285C310.464 26.3285 309.568 26.6731 308.787 27.3625C308.051 28.0518 307.684 28.902 307.684 29.9131H307.477ZM302.514 29.9131C302.468 28.902 302.077 28.0518 301.342 27.3625C300.606 26.6731 299.71 26.3285 298.653 26.3285C298.653 26.3285 298.447 26.3285 298.033 26.3285C297.665 26.3285 297.481 26.3285 297.481 26.3285V25.6391H302.652V29.9131H302.514ZM341.138 25.6391C345.825 25.6391 349.846 26.4663 353.201 28.1208C356.602 29.7752 359.199 32.165 360.991 35.29C362.829 38.3691 363.748 42.0456 363.748 46.3196C363.748 50.5935 362.829 54.27 360.991 57.3491C359.199 60.4282 356.602 62.818 353.201 64.5183C349.846 66.1728 345.825 67 341.138 67H326.248L326.11 64.7252C329.419 64.7252 332.153 64.7252 334.313 64.7252C336.473 64.7252 338.105 64.7252 339.207 64.7252C340.31 64.7252 340.862 64.7252 340.862 64.7252C345.871 64.7252 349.8 63.0937 352.65 59.8308C355.499 56.5219 356.924 52.0182 356.924 46.3196C356.924 40.621 355.499 36.1402 352.65 32.8773C349.8 29.5684 345.871 27.914 340.862 27.914C340.862 27.914 340.287 27.914 339.139 27.914C338.036 27.914 336.335 27.914 334.037 27.914C331.74 27.914 328.867 27.914 325.421 27.914V25.6391H341.138ZM329.143 25.6391V67H322.801V25.6391H329.143ZM323.008 62.5192V67H318.044V66.3107C318.044 66.3107 318.182 66.3107 318.458 66.3107C318.734 66.3107 318.895 66.3107 318.941 66.3107C319.998 66.3107 320.894 65.943 321.629 65.2077C322.41 64.4264 322.801 63.5303 322.801 62.5192H323.008ZM322.939 30.051H322.801C322.755 28.994 322.341 28.1208 321.56 27.4314C320.825 26.6961 319.929 26.3285 318.872 26.3285C318.872 26.3285 318.734 26.3285 318.458 26.3285C318.182 26.3285 318.044 26.3285 318.044 26.3285V25.6391H322.939V30.051Z" fill="#012A4A"/>
<path d="M8.20799 82.168L14.976 96.856H12.36L7.46399 85.048L8.20799 82.168ZM3.62399 95.296C3.44799 95.76 3.47199 96.12 3.69599 96.376C3.91999 96.632 4.17599 96.76 4.46399 96.76H4.65599V97H-5.61774e-06V96.76C-5.61774e-06 96.76 0.0319944 96.76 0.0959944 96.76C0.159994 96.76 0.191994 96.76 0.191994 96.76C0.511994 96.76 0.847994 96.648 1.19999 96.424C1.55199 96.2 1.85599 95.824 2.11199 95.296H3.62399ZM8.20799 82.168L8.35199 84.232L2.95199 96.928H1.34399L7.00799 84.784C7.02399 84.752 7.07999 84.632 7.17599 84.424C7.27199 84.2 7.37599 83.944 7.48799 83.656C7.61599 83.368 7.72799 83.088 7.82399 82.816C7.93599 82.544 7.99999 82.328 8.016 82.168H8.20799ZM10.8 91.696V92.488H4.51199V91.696H10.8ZM11.736 95.296H14.28C14.52 95.824 14.816 96.2 15.168 96.424C15.52 96.648 15.856 96.76 16.176 96.76C16.176 96.76 16.208 96.76 16.272 96.76C16.336 96.76 16.368 96.76 16.368 96.76V97H10.728V96.76H10.92C11.192 96.76 11.44 96.632 11.664 96.376C11.888 96.12 11.912 95.76 11.736 95.296ZM60.2934 82.6C61.9254 82.6 63.3254 82.888 64.4934 83.464C65.6774 84.04 66.5814 84.872 67.2054 85.96C67.8454 87.032 68.1654 88.312 68.1654 89.8C68.1654 91.288 67.8454 92.568 67.2054 93.64C66.5814 94.712 65.6774 95.544 64.4934 96.136C63.3254 96.712 61.9254 97 60.2934 97H55.1094L55.0614 96.208C56.2134 96.208 57.1654 96.208 57.9174 96.208C58.6694 96.208 59.2374 96.208 59.6214 96.208C60.0054 96.208 60.1974 96.208 60.1974 96.208C61.9414 96.208 63.3094 95.64 64.3014 94.504C65.2934 93.352 65.7894 91.784 65.7894 89.8C65.7894 87.816 65.2934 86.256 64.3014 85.12C63.3094 83.968 61.9414 83.392 60.1974 83.392C60.1974 83.392 59.9974 83.392 59.5974 83.392C59.2134 83.392 58.6214 83.392 57.8214 83.392C57.0214 83.392 56.0214 83.392 54.8214 83.392V82.6H60.2934ZM56.1174 82.6V97H53.9094V82.6H56.1174ZM53.9814 95.44V97H52.2534V96.76C52.2534 96.76 52.3014 96.76 52.3974 96.76C52.4934 96.76 52.5494 96.76 52.5654 96.76C52.9334 96.76 53.2454 96.632 53.5014 96.376C53.7734 96.104 53.9094 95.792 53.9094 95.44H53.9814ZM53.9574 84.136H53.9094C53.8934 83.768 53.7494 83.464 53.4774 83.224C53.2214 82.968 52.9094 82.84 52.5414 82.84C52.5414 82.84 52.4934 82.84 52.3974 82.84C52.3014 82.84 52.2534 82.84 52.2534 82.84V82.6H53.9574V84.136ZM111.566 97.336L104.822 82.744H107.438L112.31 94.432L111.566 97.336ZM111.566 97.336L111.422 95.296L116.822 82.672H118.43L112.79 94.696C112.774 94.728 112.718 94.848 112.622 95.056C112.526 95.264 112.414 95.52 112.286 95.824C112.174 96.112 112.062 96.392 111.95 96.664C111.854 96.936 111.798 97.16 111.782 97.336H111.566ZM116.15 84.304C116.326 83.84 116.302 83.48 116.078 83.224C115.854 82.968 115.598 82.84 115.31 82.84H115.142V82.6H119.774V82.84C119.774 82.84 119.742 82.84 119.678 82.84C119.614 82.84 119.582 82.84 119.582 82.84C119.246 82.84 118.902 82.952 118.55 83.176C118.198 83.4 117.902 83.776 117.662 84.304H116.15ZM108.086 84.304H105.542C105.302 83.776 105.006 83.4 104.654 83.176C104.302 82.952 103.966 82.84 103.646 82.84C103.646 82.84 103.622 82.84 103.574 82.84C103.51 82.84 103.478 82.84 103.478 82.84V82.6H109.094V82.84H108.902C108.63 82.84 108.382 82.968 108.158 83.224C107.95 83.48 107.926 83.84 108.086 84.304ZM159.74 82.6V97H157.58V82.6H159.74ZM157.652 95.464V97H155.708V96.76C155.708 96.76 155.756 96.76 155.852 96.76C155.964 96.76 156.028 96.76 156.044 96.76C156.46 96.76 156.812 96.632 157.1 96.376C157.404 96.12 157.564 95.816 157.58 95.464H157.652ZM159.668 95.464H159.74C159.756 95.816 159.908 96.12 160.196 96.376C160.5 96.632 160.868 96.76 161.3 96.76C161.3 96.76 161.348 96.76 161.444 96.76C161.54 96.76 161.588 96.76 161.588 96.76L161.612 97H159.668V95.464ZM159.668 84.136V82.6H161.612L161.588 82.84C161.588 82.84 161.54 82.84 161.444 82.84C161.348 82.84 161.3 82.84 161.3 82.84C160.868 82.84 160.5 82.968 160.196 83.224C159.908 83.464 159.756 83.768 159.74 84.136H159.668ZM157.652 84.136H157.58C157.564 83.768 157.404 83.464 157.1 83.224C156.812 82.968 156.452 82.84 156.02 82.84C156.02 82.84 155.964 82.84 155.852 82.84C155.756 82.84 155.708 82.84 155.708 82.84V82.6H157.652V84.136ZM203.416 82.264C203.832 82.264 204.224 82.28 204.592 82.312C204.976 82.344 205.32 82.384 205.624 82.432C205.944 82.464 206.224 82.512 206.464 82.576C206.704 82.624 206.888 82.672 207.016 82.72L206.944 85.288H206.68C206.68 84.6 206.44 84.064 205.96 83.68C205.496 83.28 204.792 83.08 203.848 83.08C203.048 83.08 202.376 83.288 201.832 83.704C201.304 84.104 201.04 84.608 201.04 85.216C201.04 85.456 201.08 85.688 201.16 85.912C201.24 86.12 201.368 86.328 201.544 86.536C201.72 86.728 201.936 86.92 202.192 87.112L206.68 90.4C207.144 90.704 207.496 91.12 207.736 91.648C207.976 92.16 208.088 92.712 208.072 93.304C208.072 94.072 207.864 94.768 207.448 95.392C207.032 96 206.472 96.48 205.768 96.832C205.064 97.168 204.264 97.336 203.368 97.336C202.824 97.336 202.272 97.288 201.712 97.192C201.168 97.096 200.672 96.96 200.224 96.784C199.776 96.608 199.408 96.4 199.12 96.16C199.056 95.904 199.024 95.584 199.024 95.2C199.024 94.816 199.064 94.424 199.144 94.024C199.224 93.608 199.328 93.248 199.456 92.944H199.72C199.656 93.664 199.768 94.296 200.056 94.84C200.344 95.384 200.76 95.808 201.304 96.112C201.864 96.4 202.52 96.536 203.272 96.52C204.248 96.504 205 96.272 205.528 95.824C206.072 95.36 206.344 94.768 206.344 94.048C206.344 93.648 206.248 93.288 206.056 92.968C205.88 92.648 205.584 92.336 205.168 92.032L200.824 88.864C200.264 88.464 199.864 88 199.624 87.472C199.4 86.928 199.304 86.376 199.336 85.816C199.368 85.128 199.56 84.52 199.912 83.992C200.28 83.448 200.768 83.024 201.376 82.72C201.984 82.416 202.664 82.264 203.416 82.264ZM207.016 82.48V82.912H205.024V82.48H207.016ZM253.682 82.264C254.866 82.264 255.954 82.448 256.946 82.816C257.954 83.168 258.826 83.68 259.562 84.352C260.314 85.008 260.898 85.8 261.314 86.728C261.73 87.64 261.938 88.664 261.938 89.8C261.938 90.936 261.73 91.968 261.314 92.896C260.898 93.808 260.314 94.6 259.562 95.272C258.826 95.928 257.954 96.44 256.946 96.808C255.954 97.16 254.866 97.336 253.682 97.336C252.514 97.336 251.434 97.16 250.442 96.808C249.45 96.44 248.578 95.928 247.826 95.272C247.074 94.6 246.49 93.808 246.074 92.896C245.674 91.968 245.474 90.936 245.474 89.8C245.474 88.664 245.674 87.64 246.074 86.728C246.49 85.8 247.074 85.008 247.826 84.352C248.578 83.68 249.45 83.168 250.442 82.816C251.434 82.448 252.514 82.264 253.682 82.264ZM253.682 96.544C254.802 96.544 255.802 96.264 256.682 95.704C257.562 95.128 258.25 94.336 258.746 93.328C259.258 92.32 259.514 91.144 259.514 89.8C259.514 88.44 259.258 87.264 258.746 86.272C258.25 85.264 257.562 84.48 256.682 83.92C255.802 83.344 254.802 83.056 253.682 83.056C252.594 83.056 251.61 83.344 250.73 83.92C249.85 84.48 249.154 85.264 248.642 86.272C248.13 87.264 247.874 88.44 247.874 89.8C247.874 91.144 248.13 92.32 248.642 93.328C249.154 94.336 249.85 95.128 250.73 95.704C251.61 96.264 252.594 96.544 253.682 96.544ZM302.467 82.6H305.395C306.115 82.6 306.779 82.68 307.387 82.84C307.995 83 308.523 83.248 308.971 83.584C309.419 83.904 309.763 84.312 310.003 84.808C310.259 85.288 310.387 85.856 310.387 86.512C310.387 87.136 310.243 87.736 309.955 88.312C309.667 88.872 309.251 89.344 308.707 89.728C308.163 90.112 307.523 90.352 306.787 90.448C307.123 90.56 307.483 90.816 307.867 91.216C308.251 91.616 308.563 92 308.803 92.368C308.835 92.4 308.947 92.56 309.139 92.848C309.331 93.12 309.571 93.456 309.859 93.856C310.163 94.24 310.467 94.624 310.771 95.008C311.107 95.392 311.403 95.712 311.659 95.968C311.931 96.224 312.219 96.424 312.523 96.568C312.827 96.696 313.179 96.76 313.579 96.76V97H312.427C311.547 97 310.819 96.904 310.243 96.712C309.667 96.52 309.187 96.256 308.803 95.92C308.419 95.584 308.083 95.216 307.795 94.816C307.699 94.704 307.547 94.488 307.339 94.168C307.131 93.848 306.907 93.512 306.667 93.16C306.443 92.792 306.235 92.456 306.043 92.152C305.851 91.848 305.731 91.648 305.683 91.552C305.395 91.104 305.067 90.736 304.699 90.448C304.347 90.144 303.979 89.992 303.595 89.992V89.752C303.595 89.752 303.699 89.76 303.907 89.776C304.115 89.776 304.379 89.768 304.699 89.752C305.115 89.736 305.523 89.696 305.923 89.632C306.339 89.552 306.723 89.36 307.075 89.056C307.427 88.736 307.699 88.24 307.891 87.568C307.939 87.424 307.979 87.248 308.011 87.04C308.043 86.816 308.051 86.576 308.035 86.32C308.003 85.824 307.907 85.4 307.747 85.048C307.587 84.696 307.363 84.408 307.075 84.184C306.803 83.944 306.491 83.768 306.139 83.656C305.803 83.528 305.435 83.456 305.035 83.44C304.443 83.424 303.915 83.424 303.451 83.44C303.003 83.44 302.755 83.432 302.707 83.416C302.707 83.416 302.683 83.352 302.635 83.224C302.603 83.08 302.563 82.944 302.515 82.816C302.483 82.672 302.467 82.6 302.467 82.6ZM302.755 82.6V97H300.571V82.6H302.755ZM300.643 95.464L300.859 97H298.915V96.76C298.931 96.76 298.987 96.76 299.083 96.76C299.179 96.76 299.235 96.76 299.251 96.76C299.619 96.76 299.931 96.632 300.187 96.376C300.443 96.12 300.579 95.816 300.595 95.464H300.643ZM300.643 84.112H300.595C300.579 83.744 300.443 83.44 300.187 83.2C299.931 82.96 299.619 82.84 299.251 82.84C299.235 82.84 299.179 82.84 299.083 82.84C298.987 82.84 298.931 82.84 298.915 82.84V82.6H300.859L300.643 84.112ZM302.683 95.464H302.755C302.755 95.832 302.883 96.144 303.139 96.4C303.411 96.64 303.731 96.76 304.099 96.76C304.099 96.76 304.139 96.76 304.219 96.76C304.315 96.76 304.371 96.76 304.387 96.76L304.411 97H302.443L302.683 95.464ZM351.036 82.624L355.5 90.496L353.772 91.168L348.324 82.624H351.036ZM355.788 90.688V97H353.58V90.712L355.788 90.688ZM359.604 82.624H361.212L355.596 91.192L354.612 90.952L359.604 82.624ZM358.716 84.112C358.892 83.808 358.892 83.52 358.716 83.248C358.556 82.976 358.308 82.84 357.972 82.84C357.972 82.84 357.924 82.84 357.828 82.84C357.732 82.84 357.684 82.84 357.684 82.84V82.6H362.748V82.84H362.46C362.012 82.84 361.596 82.96 361.212 83.2C360.828 83.44 360.524 83.72 360.3 84.04L358.716 84.112ZM351.876 84.112L349.212 84.04C348.972 83.672 348.66 83.384 348.276 83.176C347.908 82.952 347.492 82.84 347.028 82.84H346.74V82.6H352.884V82.84C352.884 82.84 352.836 82.84 352.74 82.84C352.66 82.84 352.62 82.84 352.62 82.84C352.268 82.84 352.012 82.984 351.852 83.272C351.708 83.544 351.716 83.824 351.876 84.112ZM353.652 95.464V97H351.924V96.76C351.94 96.76 351.988 96.76 352.068 96.76C352.164 96.76 352.212 96.76 352.212 96.76C352.596 96.76 352.916 96.632 353.172 96.376C353.428 96.12 353.564 95.816 353.58 95.464H353.652ZM355.716 95.464H355.788C355.804 95.816 355.94 96.12 356.196 96.376C356.468 96.632 356.788 96.76 357.156 96.76C357.156 96.76 357.204 96.76 357.3 96.76C357.396 96.76 357.444 96.76 357.444 96.76V97H355.716V95.464Z" fill="#012A4A"/>
</svg>
